HIERARCHY
ROOT bip01_pelvis
{
	OFFSET -0.141780 111.560104 -53.453648
	CHANNELS 6 Xposition Yposition Zposition Xrotation Yrotation Zrotation
	JOINT bip01_l_thigh
	{
		OFFSET -12.581326 0.000023 0.838757
		CHANNELS 3 Xrotation Yrotation Zrotation
		JOINT bip01_l_calf
		{
			OFFSET -5.405050 -43.060066 12.568863
			CHANNELS 3 Xrotation Yrotation Zrotation
			JOINT bip01_l_foot
			{
				OFFSET -6.378141 -25.639313 -28.000755
				CHANNELS 3 Xrotation Yrotation Zrotation
				JOINT bip01_l_toe0
				{
					OFFSET -1.312191 -43.345943 -5.410645
					CHANNELS 3 Xrotation Yrotation Zrotation
					End Site
					{
						OFFSET 0.668312 -0.011212 0.027710
					}
				}
			}
		}
	}
	JOINT bip01_r_thigh
	{
		OFFSET 12.581315 -0.000053 -0.838764
		CHANNELS 3 Xrotation Yrotation Zrotation
		JOINT bip01_r_calf
		{
			OFFSET 7.025425 -43.060097 11.740181
			CHANNELS 3 Xrotation Yrotation Zrotation
			JOINT bip01_r_foot
			{
				OFFSET 2.604660 -25.639347 -28.599602
				CHANNELS 3 Xrotation Yrotation Zrotation
				JOINT bip01_r_toe0
				{
					OFFSET 0.582125 -43.345810 -5.536972
					CHANNELS 3 Xrotation Yrotation Zrotation
					End Site
					{
						OFFSET 0.658720 0.011207 -0.116180
					}
				}
			}
		}
	}
	JOINT bip01_spine
	{
		OFFSET 1.130847 -10.257637 16.963192
		CHANNELS 3 Xrotation Yrotation Zrotation
		JOINT bip01_spine1
		{
			OFFSET 2.125925 -0.408882 31.891911
			CHANNELS 3 Xrotation Yrotation Zrotation
			JOINT bip01_spine2
			{
				OFFSET 3.104555 -1.436646 46.949230
				CHANNELS 3 Xrotation Yrotation Zrotation
				JOINT bip01_neck
				{
					OFFSET 1.831697 12.621635 29.209831
					CHANNELS 3 Xrotation Yrotation Zrotation
					JOINT bip01_head
					{
						OFFSET 0.933028 14.642593 15.308128
						CHANNELS 3 Xrotation Yrotation Zrotation
						JOINT bip01_ponytail1
						{
							OFFSET 12.881245 30.917107 3.869919
							CHANNELS 3 Xrotation Yrotation Zrotation
							End Site
							{
								OFFSET -0.556711 0.315430 0.195229
							}
						}
						JOINT bip01_ponytail2
						{
							OFFSET -12.308470 31.163292 5.588448
							CHANNELS 3 Xrotation Yrotation Zrotation
							End Site
							{
								OFFSET -0.577699 -0.315430 -0.119598
							}
						}
						JOINT bone01
						{
							OFFSET -0.035753 10.693596 0.910164
							CHANNELS 3 Xrotation Yrotation Zrotation
							End Site
							{
								OFFSET -0.667642 0.000000 0.042305
							}
						}
						JOINT bone03
						{
							OFFSET -2.859410 10.011330 9.974838
							CHANNELS 3 Xrotation Yrotation Zrotation
							End Site
							{
								OFFSET 0.042301 0.000000 0.667641
							}
						}
						JOINT bone05
						{
							OFFSET 4.144515 10.011345 9.531006
							CHANNELS 3 Xrotation Yrotation Zrotation
							End Site
							{
								OFFSET 0.042301 0.000000 0.667641
							}
						}
					}
					JOINT bip01_l_clavicle
					{
						OFFSET -6.817371 -1.737137 -4.124603
						CHANNELS 3 Xrotation Yrotation Zrotation
						JOINT bip01_l_upperarm
						{
							OFFSET -13.915021 0.119522 7.203735
							CHANNELS 3 Xrotation Yrotation Zrotation
							JOINT bip01_l_forearm
							{
								OFFSET 0.900768 -49.360191 -24.691143
								CHANNELS 3 Xrotation Yrotation Zrotation
								JOINT bip01_l_hand
								{
									OFFSET 5.453267 -54.192162 0.261513
									CHANNELS 3 Xrotation Yrotation Zrotation
									End Site
									{
										OFFSET -0.048247 0.019447 -0.666954
									}
								}
							}
						}
					}
					JOINT bip01_r_clavicle
					{
						OFFSET 6.291911 -1.668388 -4.989365
						CHANNELS 3 Xrotation Yrotation Zrotation
						JOINT bip01_r_upperarm
						{
							OFFSET 14.738678 0.269737 5.313599
							CHANNELS 3 Xrotation Yrotation Zrotation
							JOINT bip01_r_forearm
							{
								OFFSET -4.170362 -49.360199 -24.353104
								CHANNELS 3 Xrotation Yrotation Zrotation
								JOINT bip01_r_hand
								{
									OFFSET -5.370342 -54.192158 0.983074
									CHANNELS 3 Xrotation Yrotation Zrotation
									End Site
									{
										OFFSET 0.040714 -0.019448 0.667458
									}
								}
							}
						}
					}
				}
			}
		}
	}
	JOINT bip01_tail
	{
		OFFSET -1.140240 5.694984 -17.420544
		CHANNELS 3 Xrotation Yrotation Zrotation
		JOINT bip01_tail1
		{
			OFFSET -0.799711 -16.655739 -11.995483
			CHANNELS 3 Xrotation Yrotation Zrotation
			JOINT bip01_tail2
			{
				OFFSET -0.560408 -49.655807 -8.404999
				CHANNELS 3 Xrotation Yrotation Zrotation
				End Site
				{
					OFFSET -0.667499 0.000004 0.044495
				}
			}
		}
	}
}
MOTION
Frames: 6
Frame Time: 0.041667
-0.236077 113.072388 -74.223152 12.714415 -6.335427 0.129953 -19.285317 -23.993647 7.338365 -3.262588 0.485520 0.304328 -15.500971 5.576224 -1.868694 27.035236 14.139562 -3.532665 -16.759720 13.812775 1.352865 1.384882 0.208262 -0.064233 -13.130863 -6.546841 -7.204393 22.165210 4.609379 2.032423 -0.097688 1.883160 -0.637125 4.028868 -0.325376 7.382407 21.758298 -0.871628 -2.518449 -2.449357 -3.359914 -6.141861 6.982803 4.465805 -4.170371 8.850919 -2.258058 -8.548359 7.255342 4.705973 11.011672 0.503609 -0.117105 -0.186567 0.004078 0.003788 -0.004769 -0.002728 0.000244 0.003161 7.272583 -8.388729 15.123654 -55.963210 17.382720 -22.749711 -67.312225 -11.055928 5.138807 82.161766 -1.702548 14.300024 1.663180 11.226331 8.747463 -53.494363 7.742948 25.616466 -53.592690 5.203726 0.978421 72.834023 -5.026201 -26.073450 -0.096579 4.165487 2.448148 15.895638 -0.207151 -1.896333 -26.749550 -2.655588 -2.789435 
0.132726 112.982269 -75.064873 12.543643 -5.576134 0.199887 -20.183993 -24.844781 6.707811 -2.919786 0.435340 0.271074 -15.329941 5.528944 -1.989931 27.361227 14.359313 -3.518614 -17.402822 13.045575 0.749069 1.772826 0.266357 -0.083043 -13.237894 -6.625739 -6.613898 22.805170 4.589662 1.874100 -0.275742 1.110864 -4.245866 3.975319 -0.413986 9.979565 21.925852 -2.597342 -5.120125 -2.334899 -7.069402 -2.647692 8.694190 10.107784 -0.840347 8.796117 -0.913826 -10.232288 7.915133 3.284671 12.646329 0.162271 -0.116484 -0.164781 0.004078 0.003789 -0.004770 -0.002728 0.000245 0.003161 6.282324 -5.291669 10.731932 -56.697995 16.501455 -17.119108 -64.835386 -10.588625 5.201809 80.628471 -2.113443 13.646148 2.087366 14.295300 5.387674 -54.901170 7.071272 30.299204 -54.145758 5.248374 1.013090 74.088448 -5.512366 -26.277083 0.099048 3.386800 2.420034 15.104752 -0.170577 -1.786889 -26.231002 -2.403900 -3.269233 
0.602112 112.802071 -76.327454 12.358905 -4.800714 0.253889 -21.202826 -25.683794 5.992651 -2.537208 0.379102 0.234309 -15.069735 5.442185 -2.075991 27.668555 14.571638 -3.552050 -18.132491 12.286003 0.089697 2.224097 0.333770 -0.105419 -13.298663 -6.738211 -5.973696 23.442705 4.565242 1.717323 -0.352090 0.308185 -5.912739 3.934994 -0.454637 11.046549 21.934862 -3.358730 -6.350836 -2.138990 -9.556988 -0.251905 11.077423 12.520761 0.197159 8.800679 0.545465 -12.002166 8.665109 1.779421 14.357223 -0.162866 -0.116047 -0.143969 0.004080 0.003788 -0.004772 -0.002728 0.000245 0.003160 5.696720 -3.227716 7.654856 -57.484013 15.909452 -14.159551 -62.817735 -10.205664 5.237897 79.684327 -2.199208 13.511411 2.484779 16.169366 3.177892 -55.846868 6.738169 32.449959 -53.938065 5.231648 1.000020 74.726648 -5.692525 -26.116980 0.550539 2.501598 2.544142 13.753521 -0.104662 -1.730342 -26.474011 -2.021763 -3.915129 
1.071499 112.621872 -77.590034 12.166059 -3.939911 0.320011 -22.299825 -26.566144 5.184584 -2.121808 0.317749 0.194813 -14.821736 5.360869 -2.197280 27.987810 14.791905 -3.539535 -18.922433 11.464753 -0.627579 2.709298 0.406052 -0.130062 -13.311560 -6.867070 -5.317494 24.069375 4.543762 1.579893 -0.317629 -0.628450 -5.934531 3.939558 -0.460285 10.817244 21.797318 -3.234167 -6.442116 -2.149055 -10.592298 0.799235 14.114935 11.439089 -0.727359 8.856237 2.097290 -13.840069 9.507737 0.217896 16.128696 -0.476843 -0.115739 -0.123871 0.004078 0.003789 -0.004770 -0.002726 0.000245 0.003161 5.516261 -2.449445 6.043640 -58.233954 15.645049 -13.415250 -61.394842 -9.934660 5.255102 79.392186 -2.101605 13.708617 2.795294 16.638868 2.374262 -56.422632 6.792685 32.489024 -53.220124 5.173460 0.955308 74.939265 -5.626157 -25.672014 1.216039 1.475079 2.806941 11.981345 -0.021967 -1.711500 -27.327660 -1.541963 -4.662121 
1.574414 112.531776 -78.852631 11.963435 -3.005514 0.376314 -23.443101 -27.490359 4.295528 -1.677765 0.251848 0.153084 -14.578287 5.263518 -2.295418 28.305656 15.007802 -3.545047 -19.725170 10.603192 -1.391836 3.200322 0.478976 -0.155623 -13.299016 -7.018117 -4.610923 24.697141 4.514708 1.400854 -0.195437 -1.706333 -5.516528 3.953877 -0.469625 10.193221 21.488766 -2.756589 -6.217697 -2.292918 -10.929611 1.197922 17.684265 8.632925 -2.071623 8.972722 3.721822 -15.732050 10.434765 -1.380665 17.954505 -0.779829 -0.118939 -0.103514 0.004076 0.003788 -0.004772 -0.002726 0.000244 0.003161 5.501600 -2.307221 5.133661 -58.839184 15.498266 -13.263677 -60.250137 -9.716207 5.263971 79.306365 -1.989697 13.959880 3.039885 16.435802 2.264692 -56.863084 6.938958 32.009292 -52.333196 5.100801 0.901086 75.024041 -5.524200 -25.186222 2.055812 0.336946 3.181435 9.930848 0.078610 -1.722972 -28.614091 -0.996155 -5.439791 
2.043803 112.351555 -80.115204 11.745607 -2.013681 0.416601 -24.594041 -28.446852 3.344723 -1.212107 0.182383 0.109870 -14.378207 5.163054 -2.385358 28.625377 15.225147 -3.548800 -20.517005 9.702180 -2.185592 3.692568 0.551856 -0.181876 -13.275806 -7.169973 -3.936550 25.312430 4.485330 1.245452 -0.008505 -2.882705 -4.734349 3.965327 -0.483130 9.242225 21.057458 -2.015164 -5.727181 -2.431500 -10.836187 1.185517 20.982814 4.755952 -3.389847 9.149032 5.397456 -17.664204 11.433833 -2.993529 19.818661 -1.066672 -0.117945 -0.081779 0.004078 0.003790 -0.004770 -0.002723 0.000245 0.003160 5.487164 -2.550831 4.671018 -59.286329 15.449630 -13.598327 -59.282080 -9.531252 5.268019 79.363240 -1.867329 14.250232 3.149138 15.824785 2.597217 -57.179817 7.188530 31.115248 -51.306984 5.015678 0.839762 74.984030 -5.400661 -24.677723 3.035225 -0.877904 3.648395 7.757219 0.183311 -1.748227 -30.175523 -0.429002 -6.181310 
